<svg version="1.0" xmlns="http://www.w3.org/2000/svg" width="85.333" height="85.333" viewBox="0 0 64 64"><path d="M3 18.7c3.4 1.2 4 3.6 4 15.3 0 11.7-.6 14-4 15.4-.8.3 3.1.4 8.7.3 9.2-.2 10.4-.4 12.7-2.6 1.9-1.8 2.6-3.5 2.6-6.1 0-5.3-3.5-8.2-10.5-8.8l-5.5-.4V20h4.8c4.9 0 7.5 1.3 8.5 4 .3.8.6-.2.6-2.3L25 18l-11.7.1c-6.5 0-11.1.3-10.3.6zm28 0c3.4 1.2 4 3.6 4 15.3 0 11.7-.6 14.1-4 15.3-.8.3 1.7.5 5.5.6 5.2 0 6.4-.3 4.8-.9-2.1-.8-2.3-1.6-2.3-7.5 0-5.8.2-6.6 1.7-6.3 1 .2 4 3.6 6.8 7.5 5 7.1 5 7.2 9.5 7.2 4.1-.1 4.2-.2 1.9-1-1.5-.6-4.5-3.6-6.7-6.8-2.3-3.2-4.8-6.4-5.7-7.1-1.4-1.1-1.4-1.5-.1-2.9.9-.9 2.5-3.8 3.6-6.5 1.7-3.7 2.5-4.6 3.8-4.1 4.4 1.8 5.2 1.7 5.2-.4 0-2.6-2.1-3.6-5.5-2.7-1.9.5-3.2 2.1-5.1 6.4-2.6 6-4.6 8.2-7.6 8.2-1.6 0-1.8-.9-1.8-6.5 0-5.9.2-6.7 2.3-7.5 1.6-.6.4-.9-4.8-.9-3.8.1-6.3.3-5.5.6z"/></svg>